<svg width="76" height="76" viewBox="0 0 76 76" xmlns="http://www.w3.org/2000/svg">
  <path d="M47.0052 9.40104C31.4375 9.40104 18.8021 22.026 18.8021 37.6042C18.8021 47.9896 27.224 56.4062 37.6042 56.4062C47.9896 56.4062 56.4063 47.9896 56.4115 37.6042C56.4115 30.6875 50.7969 25.0677 43.875 25.0677C36.9531 25.0677 31.3385 30.6875 31.3385 37.6042C31.3385 41.0677 34.1458 43.875 37.6042 43.875C41.0677 43.875 43.875 41.0677 43.875 37.6042H37.6042C37.6042 34.1406 40.4115 31.3385 43.875 31.3385C47.3333 31.3385 50.1406 34.1406 50.1406 37.6042C50.1406 44.5312 44.526 50.1406 37.6042 50.1406C30.6823 50.1406 25.0729 44.5312 25.0729 37.6042C25.0729 27.224 33.4896 18.8021 43.875 18.8021C54.2604 18.8021 62.6719 27.224 62.6771 37.6042C62.6719 51.4479 51.4531 62.6719 37.6042 62.6719C23.7604 62.6719 12.5365 51.4479 12.5365 37.6042C12.5365 18.5677 27.974 3.13542 47.0052 3.13542C49.474 3.13542 51.875 3.40104 54.1979 3.89583C49.1875 1.42708 43.5677 0 37.6042 0C16.8385 0 0 16.8385 0 37.6042C0 58.375 16.8385 75.2135 37.6042 75.2135C58.375 75.2135 75.2135 58.375 75.2135 37.6042C75.2135 36.6354 75.1406 35.6771 75.0677 34.724C73.6198 20.5 61.6146 9.40104 47.0052 9.40104Z" fill="#ff640a"/>
</svg>